<svg width="41" height="42" viewBox="0 0 41 42" fill="none" xmlns="http://www.w3.org/2000/svg">
<path d="M11.89 0H29.11C35.67 0 41 5.46 41 12.18V29.82C41 33.0503 39.7473 36.1484 37.5175 38.4326C35.2877 40.7168 32.2634 42 29.11 42H11.89C5.33 42 0 36.54 0 29.82V12.18C0 8.94966 1.25269 5.85163 3.4825 3.56744C5.71231 1.28325 8.73658 0 11.89 0ZM11.48 4.2C9.5227 4.2 7.64557 4.9965 6.26155 6.41427C4.87753 7.83205 4.1 9.75496 4.1 11.76V30.24C4.1 34.419 7.4005 37.8 11.48 37.8H29.52C31.4773 37.8 33.3544 37.0035 34.7384 35.5857C36.1225 34.168 36.9 32.245 36.9 30.24V11.76C36.9 7.581 33.5995 4.2 29.52 4.2H11.48ZM31.2625 7.35C31.9421 7.35 32.5939 7.62656 33.0745 8.11884C33.555 8.61113 33.825 9.27881 33.825 9.975C33.825 10.6712 33.555 11.3389 33.0745 11.8312C32.5939 12.3234 31.9421 12.6 31.2625 12.6C30.5829 12.6 29.9311 12.3234 29.4505 11.8312C28.97 11.3389 28.7 10.6712 28.7 9.975C28.7 9.27881 28.97 8.61113 29.4505 8.11884C29.9311 7.62656 30.5829 7.35 31.2625 7.35ZM20.5 10.5C23.2185 10.5 25.8256 11.6062 27.7478 13.5754C29.6701 15.5445 30.75 18.2152 30.75 21C30.75 23.7848 29.6701 26.4555 27.7478 28.4246C25.8256 30.3938 23.2185 31.5 20.5 31.5C17.7815 31.5 15.1744 30.3938 13.2522 28.4246C11.3299 26.4555 10.25 23.7848 10.25 21C10.25 18.2152 11.3299 15.5445 13.2522 13.5754C15.1744 11.6062 17.7815 10.5 20.5 10.5ZM20.5 14.7C18.8689 14.7 17.3046 15.3637 16.1513 16.5452C14.9979 17.7267 14.35 19.3291 14.35 21C14.35 22.6709 14.9979 24.2733 16.1513 25.4548C17.3046 26.6363 18.8689 27.3 20.5 27.3C22.1311 27.3 23.6954 26.6363 24.8487 25.4548C26.0021 24.2733 26.65 22.6709 26.65 21C26.65 19.3291 26.0021 17.7267 24.8487 16.5452C23.6954 15.3637 22.1311 14.7 20.5 14.7Z" fill="#655D5E"/>
</svg>
