<svg width="60" height="42" viewBox="0 0 60 42" fill="none" xmlns="http://www.w3.org/2000/svg">
<path d="M24 30L39.57 21L24 12V30ZM58.68 6.51C59.07 7.92 59.34 9.81 59.52 12.21C59.73 14.61 59.82 16.68 59.82 18.48L60 21C60 27.57 59.52 32.4 58.68 35.49C57.93 38.19 56.19 39.93 53.49 40.68C52.08 41.07 49.5 41.34 45.54 41.52C41.64 41.73 38.07 41.82 34.77 41.82L30 42C17.43 42 9.6 41.52 6.51 40.68C3.81 39.93 2.07 38.19 1.32 35.49C0.93 34.08 0.66 32.19 0.48 29.79C0.27 27.39 0.18 25.32 0.18 23.52L0 21C0 14.43 0.48 9.6 1.32 6.51C2.07 3.81 3.81 2.07 6.51 1.32C7.92 0.93 10.5 0.66 14.46 0.48C18.36 0.27 21.93 0.18 25.23 0.18L30 0C42.57 0 50.4 0.48 53.49 1.32C56.19 2.07 57.93 3.81 58.68 6.51Z" fill="#655D5E"/>
</svg>
