<svg width="45" height="42" viewBox="0 0 45 42" fill="none" xmlns="http://www.w3.org/2000/svg">
<path d="M22.4979 0C34.9264 0 45 7.97392 45 17.8129C45 27.6498 34.9264 35.6237 22.5 35.6237C21.2627 35.6215 20.0268 35.5415 18.7993 35.3843L9.35357 41.6585C8.28 42.2352 7.90071 42.1721 8.34214 40.7597L10.2536 32.7553C4.08214 29.5779 0 24.0719 0 17.8129C0 7.9761 10.0714 0 22.5 0M35.16 17.5409L38.31 14.4419C38.4918 14.2501 38.5932 13.9943 38.5928 13.7281C38.5925 13.462 38.4905 13.2064 38.3083 13.0151C38.1261 12.8238 37.8779 12.7119 37.616 12.7028C37.3541 12.6937 37.0989 12.7882 36.9043 12.9663L32.7729 17.0273V13.6714C32.7729 13.399 32.6663 13.1377 32.4766 12.9451C32.2869 12.7525 32.0297 12.6442 31.7614 12.6442C31.4932 12.6442 31.2359 12.7525 31.0462 12.9451C30.8566 13.1377 30.75 13.399 30.75 13.6714V19.2362C30.7143 19.3952 30.7143 19.5603 30.75 19.7194V22.851C30.75 23.1235 30.8566 23.3847 31.0462 23.5774C31.2359 23.77 31.4932 23.8782 31.7614 23.8782C32.0297 23.8782 32.2869 23.77 32.4766 23.5774C32.6663 23.3847 32.7729 23.1235 32.7729 22.851V19.8848L33.6879 18.9859L36.7479 23.4103C36.8243 23.5208 36.9213 23.6149 37.0335 23.6873C37.1457 23.7596 37.2709 23.8088 37.4018 23.8321C37.5328 23.8553 37.6669 23.8521 37.7966 23.8227C37.9263 23.7933 38.0491 23.7382 38.1579 23.6606C38.2666 23.583 38.3593 23.4844 38.4305 23.3705C38.5018 23.2565 38.5502 23.1294 38.5731 22.9964C38.596 22.8635 38.5928 22.7272 38.5639 22.5955C38.5349 22.4637 38.4807 22.3391 38.4043 22.2286L35.16 17.5409ZM28.8214 21.7281H25.6929V13.7041C25.6809 13.4401 25.5692 13.191 25.381 13.0085C25.1929 12.826 24.9427 12.7242 24.6825 12.7242C24.4223 12.7242 24.1721 12.826 23.984 13.0085C23.7958 13.191 23.6841 13.4401 23.6721 13.7041V22.7553C23.6721 23.3211 24.1221 23.7825 24.6814 23.7825H28.8214C29.0897 23.7825 29.3469 23.6743 29.5366 23.4816C29.7263 23.289 29.8329 23.0277 29.8329 22.7553C29.8329 22.4828 29.7263 22.2216 29.5366 22.0289C29.3469 21.8363 29.0897 21.7281 28.8214 21.7281ZM16.2707 19.3537L17.7621 15.6366L19.1293 19.3516L16.2707 19.3537ZM21.6771 20.4136L21.6814 20.3788C21.6807 20.12 21.5835 19.8712 21.4093 19.6824L19.1679 13.5887C19.0739 13.2984 18.8949 13.044 18.6548 12.8597C18.4147 12.6754 18.125 12.5698 17.8243 12.5572C17.5216 12.557 17.226 12.6499 16.9763 12.8235C16.7266 12.9971 16.5344 13.2434 16.425 13.53L12.8636 22.3984C12.7621 22.6506 12.7635 22.9334 12.8674 23.1846C12.9713 23.4358 13.1691 23.6348 13.4175 23.7379C13.6659 23.8409 13.9443 23.8395 14.1917 23.734C14.439 23.6285 14.635 23.4275 14.7364 23.1753L15.4479 21.406H19.8836L20.5221 23.147C20.5657 23.2771 20.6345 23.3971 20.7246 23.4997C20.8146 23.6023 20.924 23.6856 21.0463 23.7445C21.1686 23.8034 21.3012 23.8368 21.4365 23.8427C21.5717 23.8485 21.7067 23.8268 21.8335 23.7787C21.9603 23.7307 22.0763 23.6572 22.1746 23.5628C22.273 23.4684 22.3516 23.3549 22.406 23.229C22.4604 23.1031 22.4893 22.9674 22.4911 22.83C22.4929 22.6925 22.4675 22.5561 22.4164 22.4288L21.6771 20.4136ZM14.5564 13.715C14.557 13.5801 14.5313 13.4464 14.4808 13.3217C14.4303 13.197 14.356 13.0836 14.2622 12.9881C14.1684 12.8926 14.0569 12.817 13.9342 12.7654C13.8115 12.7139 13.6799 12.6875 13.5471 12.6878H6.59357C6.32532 12.6878 6.06806 12.796 5.87838 12.9886C5.6887 13.1813 5.58214 13.4425 5.58214 13.715C5.58214 13.9874 5.6887 14.2487 5.87838 14.4413C6.06806 14.634 6.32532 14.7422 6.59357 14.7422H9.07929V22.8728C9.07929 23.1452 9.18585 23.4065 9.37553 23.5991C9.56521 23.7918 9.82247 23.9 10.0907 23.9C10.359 23.9 10.6162 23.7918 10.8059 23.5991C10.9956 23.4065 11.1021 23.1452 11.1021 22.8728V14.7422H13.545C13.678 14.7428 13.8098 14.7166 13.9327 14.6652C14.0557 14.6137 14.1674 14.5381 14.2615 14.4426C14.3555 14.3471 14.43 14.2336 14.4806 14.1087C14.5312 13.9839 14.557 13.85 14.5564 13.715Z" fill="#655D5E"/>
</svg>
